<mxfile host="app.diagrams.net" agent="Mozilla/5.0 (Windows NT 10.0; Win64; x64) AppleWebKit/537.36 (KHTML, like Gecko) Chrome/130.0.0.0 Safari/537.36" version="24.8.2">
  <diagram name="第 1 页" id="Xwh6hY9bKRAZLu4HPk8q">
    <mxGraphModel dx="1562" dy="891" grid="1" gridSize="10" guides="1" tooltips="1" connect="1" arrows="1" fold="1" page="1" pageScale="1" pageWidth="1169" pageHeight="827" math="0" shadow="0">
      <root>
        <mxCell id="0" />
        <mxCell id="1" parent="0" />
        <mxCell id="ptBm7Nk_LntaqPfMFYH8-5" value="" style="whiteSpace=wrap;html=1;aspect=fixed;strokeWidth=2;strokeColor=#2C7FB3;" vertex="1" parent="1">
          <mxGeometry x="80" y="160" width="80" height="80" as="geometry" />
        </mxCell>
        <mxCell id="ptBm7Nk_LntaqPfMFYH8-4" value="" style="whiteSpace=wrap;html=1;aspect=fixed;strokeWidth=2;strokeColor=#2C7FB3;" vertex="1" parent="1">
          <mxGeometry x="90" y="170" width="80" height="80" as="geometry" />
        </mxCell>
        <mxCell id="ptBm7Nk_LntaqPfMFYH8-3" value="" style="whiteSpace=wrap;html=1;aspect=fixed;strokeWidth=2;strokeColor=#2C7FB3;" vertex="1" parent="1">
          <mxGeometry x="100" y="180" width="80" height="80" as="geometry" />
        </mxCell>
        <mxCell id="ptBm7Nk_LntaqPfMFYH8-2" value="" style="whiteSpace=wrap;html=1;aspect=fixed;strokeColor=#2C7FB3;strokeWidth=2;" vertex="1" parent="1">
          <mxGeometry x="110" y="190" width="80" height="80" as="geometry" />
        </mxCell>
        <mxCell id="ptBm7Nk_LntaqPfMFYH8-1" value="" style="whiteSpace=wrap;html=1;aspect=fixed;strokeWidth=2;strokeColor=#2c7fb3;" vertex="1" parent="1">
          <mxGeometry x="120" y="200" width="80" height="80" as="geometry" />
        </mxCell>
        <mxCell id="ptBm7Nk_LntaqPfMFYH8-11" value="" style="rounded=1;whiteSpace=wrap;html=1;" vertex="1" parent="1">
          <mxGeometry x="240" y="200" width="350" height="70" as="geometry" />
        </mxCell>
        <mxCell id="ptBm7Nk_LntaqPfMFYH8-6" value="" style="shape=flexArrow;endArrow=classic;html=1;rounded=0;strokeWidth=0;strokeColor=#2C7FB3;fillColor=#2C7FB3;endSize=5;" edge="1" parent="1">
          <mxGeometry width="50" height="50" relative="1" as="geometry">
            <mxPoint x="200" y="229.5" as="sourcePoint" />
            <mxPoint x="250" y="230" as="targetPoint" />
          </mxGeometry>
        </mxCell>
        <mxCell id="ptBm7Nk_LntaqPfMFYH8-8" value="&lt;font color=&quot;#2c7fb3&quot; style=&quot;font-size: 16px;&quot;&gt;CNN&lt;/font&gt;" style="rounded=0;whiteSpace=wrap;html=1;strokeWidth=2;strokeColor=#2C7FB3;" vertex="1" parent="1">
          <mxGeometry x="290" y="220" width="70" height="30" as="geometry" />
        </mxCell>
        <mxCell id="ptBm7Nk_LntaqPfMFYH8-9" value="&lt;font color=&quot;#2c7fb3&quot; style=&quot;font-size: 16px;&quot;&gt;RNN&lt;/font&gt;" style="rounded=0;whiteSpace=wrap;html=1;strokeWidth=2;strokeColor=#2C7FB3;" vertex="1" parent="1">
          <mxGeometry x="380" y="220" width="70" height="30" as="geometry" />
        </mxCell>
        <mxCell id="ptBm7Nk_LntaqPfMFYH8-10" value="&lt;font color=&quot;#2c7fb3&quot;&gt;&lt;span style=&quot;font-size: 16px;&quot;&gt;Kalman&lt;/span&gt;&lt;/font&gt;" style="rounded=0;whiteSpace=wrap;html=1;strokeWidth=2;strokeColor=#2C7FB3;" vertex="1" parent="1">
          <mxGeometry x="470" y="220" width="70" height="30" as="geometry" />
        </mxCell>
        <mxCell id="ptBm7Nk_LntaqPfMFYH8-12" value="&lt;font style=&quot;font-size: 14px;&quot;&gt;OUR NEURAL NETWORK MODEL&lt;/font&gt;" style="text;html=1;align=center;verticalAlign=middle;whiteSpace=wrap;rounded=0;" vertex="1" parent="1">
          <mxGeometry x="300" y="170" width="230" height="30" as="geometry" />
        </mxCell>
        <mxCell id="ptBm7Nk_LntaqPfMFYH8-13" value="" style="shape=corner;whiteSpace=wrap;html=1;strokeWidth=2;strokeColor=#2C7FB3;" vertex="1" parent="1">
          <mxGeometry x="140" y="220" width="60" height="60" as="geometry" />
        </mxCell>
        <mxCell id="ptBm7Nk_LntaqPfMFYH8-16" value="" style="shape=flexArrow;endArrow=classic;html=1;rounded=1;fillColor=#2C7FB3;strokeColor=#2C7FB3;strokeWidth=0;" edge="1" parent="1">
          <mxGeometry width="50" height="50" relative="1" as="geometry">
            <mxPoint x="590" y="230" as="sourcePoint" />
            <mxPoint x="720" y="170" as="targetPoint" />
            <Array as="points">
              <mxPoint x="640" y="230" />
              <mxPoint x="640" y="170" />
              <mxPoint x="670" y="170" />
            </Array>
          </mxGeometry>
        </mxCell>
        <mxCell id="ptBm7Nk_LntaqPfMFYH8-18" value="" style="shape=flexArrow;endArrow=classic;html=1;rounded=0;fillColor=#2C7FB3;strokeColor=#2C7FB3;strokeWidth=0;" edge="1" parent="1">
          <mxGeometry width="50" height="50" relative="1" as="geometry">
            <mxPoint x="640" y="229.82999999999998" as="sourcePoint" />
            <mxPoint x="720" y="229.82999999999998" as="targetPoint" />
          </mxGeometry>
        </mxCell>
        <mxCell id="ptBm7Nk_LntaqPfMFYH8-19" value="" style="shape=flexArrow;endArrow=classic;html=1;rounded=1;strokeColor=#2C7FB3;fillColor=#2C7FB3;strokeWidth=0;" edge="1" parent="1">
          <mxGeometry width="50" height="50" relative="1" as="geometry">
            <mxPoint x="640" y="200" as="sourcePoint" />
            <mxPoint x="720" y="290" as="targetPoint" />
            <Array as="points">
              <mxPoint x="640" y="270" />
              <mxPoint x="640" y="290" />
            </Array>
          </mxGeometry>
        </mxCell>
        <mxCell id="ptBm7Nk_LntaqPfMFYH8-21" value="&lt;b style=&quot;&quot;&gt;&lt;font color=&quot;#808080&quot; style=&quot;font-size: 14px;&quot;&gt;STRAIGHT FORWARD&lt;/font&gt;&lt;/b&gt;" style="text;html=1;align=center;verticalAlign=middle;whiteSpace=wrap;rounded=0;" vertex="1" parent="1">
          <mxGeometry x="720" y="220" width="100" height="30" as="geometry" />
        </mxCell>
        <mxCell id="ptBm7Nk_LntaqPfMFYH8-22" value="&lt;font color=&quot;#808080&quot; style=&quot;font-size: 14px;&quot;&gt;&lt;b&gt;TURN LEFT&lt;/b&gt;&lt;/font&gt;" style="text;html=1;align=center;verticalAlign=middle;whiteSpace=wrap;rounded=0;" vertex="1" parent="1">
          <mxGeometry x="720" y="160" width="100" height="30" as="geometry" />
        </mxCell>
        <mxCell id="ptBm7Nk_LntaqPfMFYH8-23" value="&lt;font color=&quot;#2c7fb3&quot; style=&quot;font-size: 14px;&quot;&gt;&lt;b&gt;TURN RIGHT&lt;/b&gt;&lt;/font&gt;" style="text;html=1;align=center;verticalAlign=middle;whiteSpace=wrap;rounded=0;" vertex="1" parent="1">
          <mxGeometry x="720" y="280" width="100" height="30" as="geometry" />
        </mxCell>
      </root>
    </mxGraphModel>
  </diagram>
</mxfile>
